<svg width="74" height="33" viewBox="0 0 74 33" fill="none" xmlns="http://www.w3.org/2000/svg">
<g filter="url(#filter0_d_37_17)">
<rect x="4" width="66" height="25" fill="#BA5A4D" fill-opacity="0.65" shape-rendering="crispEdges"/>
<rect x="4.5" y="0.5" width="65" height="24" stroke="black" shape-rendering="crispEdges"/>
</g>
<path d="M32.7568 18L30.7318 15.075H30.6118H28.4968V18H26.0668V7.5H30.6118C31.5418 7.5 32.3468 7.655 33.0268 7.965C33.7168 8.275 34.2468 8.715 34.6168 9.285C34.9868 9.855 35.1718 10.53 35.1718 11.31C35.1718 12.09 34.9818 12.765 34.6018 13.335C34.2318 13.895 33.7018 14.325 33.0118 14.625L35.3668 18H32.7568ZM32.7118 11.31C32.7118 10.72 32.5218 10.27 32.1418 9.96C31.7618 9.64 31.2068 9.48 30.4768 9.48H28.4968V13.14H30.4768C31.2068 13.14 31.7618 12.98 32.1418 12.66C32.5218 12.34 32.7118 11.89 32.7118 11.31ZM46.6521 18L46.6371 11.7L43.5471 16.89H42.4521L39.3771 11.835V18H37.0971V7.5H39.1071L43.0371 14.025L46.9071 7.5H48.9021L48.9321 18H46.6521Z" fill="#2D1E1E"/>
<defs>
<filter id="filter0_d_37_17" x="0" y="0" width="74" height="33" filterUnits="userSpaceOnUse" color-interpolation-filters="sRGB">
<feFlood flood-opacity="0" result="BackgroundImageFix"/>
<feColorMatrix in="SourceAlpha" type="matrix" values="0 0 0 0 0 0 0 0 0 0 0 0 0 0 0 0 0 0 127 0" result="hardAlpha"/>
<feOffset dy="4"/>
<feGaussianBlur stdDeviation="2"/>
<feComposite in2="hardAlpha" operator="out"/>
<feColorMatrix type="matrix" values="0 0 0 0 0 0 0 0 0 0 0 0 0 0 0 0 0 0 0.25 0"/>
<feBlend mode="normal" in2="BackgroundImageFix" result="effect1_dropShadow_37_17"/>
<feBlend mode="normal" in="SourceGraphic" in2="effect1_dropShadow_37_17" result="shape"/>
</filter>
</defs>
</svg>
